<svg id="图层_1" data-name="图层 1" xmlns="http://www.w3.org/2000/svg" xmlns:xlink="http://www.w3.org/1999/xlink" viewBox="0 0 344.19 100.8"><defs><style>.cls-1{fill:#e48023;}.cls-2{fill:#ffc55f;}.cls-3{fill:#fff3d4;}.cls-4{fill:#6f3319;}.cls-5{fill:#ffa535;}.cls-6{fill:none;stroke:#feffcb;stroke-miterlimit:10;stroke-width:3px;}.cls-7{fill:url(#未命名的渐变_3);}.cls-8{fill:#fff;}</style><linearGradient id="未命名的渐变_3" x1="116.65" y1="48.65" x2="218.14" y2="48.65" gradientUnits="userSpaceOnUse"><stop offset="0" stop-color="#ff8e44"/><stop offset="0.5" stop-color="#d52f30"/><stop offset="1" stop-color="#fff"/></linearGradient></defs><polygon class="cls-1" points="19.05 34.35 19.05 14.15 36.55 4.04 54.05 14.15 54.05 34.35 36.55 44.45 19.05 34.35"/><path class="cls-2" d="M36.33,8l14,8.08V32.29l-14,8.08-14-8.08V16.12L36.33,8m0-8.08-3.5,2-14,8.08-3.5,2V36.33l3.5,2,14,8.08,3.5,2,3.5-2,14-8.08,3.5-2V12.08l-3.5-2L39.83,2l-3.5-2Z" transform="translate(0.22 0.04)"/><polygon class="cls-1" points="49.95 34.35 49.95 14.15 67.45 4.04 84.95 14.15 84.95 34.35 67.45 44.45 49.95 34.35"/><path class="cls-2" d="M67.23,8l14,8.08V32.29l-14,8.08-14-8.08V16.12L67.23,8m0-8.08-3.5,2-14,8.08-3.5,2V36.33l3.5,2,14,8.08,3.5,2,3.5-2,14-8.08,3.5-2V12.08l-3.5-2L70.73,2l-3.5-2Z" transform="translate(0.22 0.04)"/><polygon class="cls-1" points="3.5 60.5 3.5 40.3 21 30.19 38.5 40.3 38.5 60.5 21 70.61 3.5 60.5"/><path class="cls-2" d="M20.78,34.19l14,8.08V58.44l-14,8.08-14-8.08V42.27l14-8.08m0-8.08-3.5,2-14,8.08-3.5,2V62.48l3.5,2,14,8.09,3.5,2,3.5-2,14-8.09,3.5-2V38.23l-3.5-2-14-8.08-3.5-2Z" transform="translate(0.22 0.04)"/><polygon class="cls-1" points="34.5 60.5 34.5 40.3 52 30.19 69.5 40.3 69.5 60.5 52 70.61 34.5 60.5"/><path class="cls-2" d="M51.78,34.19l14,8.08V58.44l-14,8.08-14-8.08V42.27l14-8.08m0-8.08-3.5,2-14,8.08-3.5,2V62.48l3.5,2,14,8.09,3.5,2,3.5-2,14-8.09,3.5-2V38.23l-3.5-2-14-8.08-3.5-2Z" transform="translate(0.22 0.04)"/><polygon class="cls-1" points="65.4 60.5 65.4 40.3 82.9 30.19 100.4 40.3 100.4 60.5 82.9 70.61 65.4 60.5"/><path class="cls-2" d="M82.68,34.19l14,8.08V58.44l-14,8.08-14-8.08V42.27l14-8.08m0-8.08-3.5,2-14,8.08-3.5,2V62.48l3.5,2,14,8.09,3.5,2,3.5-2,14-8.09,3.5-2V38.23l-3.5-2-14-8.08-3.5-2Z" transform="translate(0.22 0.04)"/><polygon class="cls-1" points="19.05 86.66 19.05 66.45 36.55 56.34 54.05 66.45 54.05 86.66 36.55 96.76 19.05 86.66"/><path class="cls-2" d="M36.33,60.34l14,8.09V84.59l-14,8.08-14-8.08V68.43l14-8.09m0-8.08-3.5,2-14,8.08-3.5,2V88.63l3.5,2,14,8.09,3.5,2,3.5-2,14-8.09,3.5-2V64.38l-3.5-2-14-8.08-3.5-2Z" transform="translate(0.22 0.04)"/><polygon class="cls-1" points="49.95 86.66 49.95 66.45 67.45 56.34 84.95 66.45 84.95 86.66 67.45 96.76 49.95 86.66"/><path class="cls-2" d="M67.23,60.34l14,8.09V84.59l-14,8.08-14-8.08V68.43l14-8.09m0-8.08-3.5,2-14,8.08-3.5,2V88.63l3.5,2,14,8.09,3.5,2,3.5-2,14-8.09,3.5-2V64.38l-3.5-2-14-8.08-3.5-2Z" transform="translate(0.22 0.04)"/><polygon class="cls-1" points="20.05 33.77 20.05 14.72 36.55 5.2 53.05 14.72 53.05 33.77 36.55 43.3 20.05 33.77"/><path class="cls-3" d="M36.33,8l14,8.08V32.29l-14,8.08-14-8.08V16.12L36.33,8m0-5.77-2.5,1.44-14,8.08-2.5,1.45V35.18l2.5,1.44,14,8.08,2.5,1.44,2.5-1.44,14-8.08,2.5-1.44V13.24l-2.5-1.45-14-8.08-2.5-1.44Z" transform="translate(0.22 0.04)"/><polygon class="cls-1" points="50.95 33.77 50.95 14.72 67.45 5.2 83.95 14.72 83.95 33.77 67.45 43.3 50.95 33.77"/><path class="cls-3" d="M67.23,8l14,8.08V32.29l-14,8.08-14-8.08V16.12L67.23,8m0-5.77-2.5,1.44-14,8.08-2.5,1.45V35.18l2.5,1.44,14,8.08,2.5,1.44,2.5-1.44,14-8.08,2.5-1.44V13.24l-2.5-1.45-14-8.08-2.5-1.44Z" transform="translate(0.22 0.04)"/><polygon class="cls-1" points="4.5 59.93 4.5 40.87 21 31.35 37.5 40.87 37.5 59.93 21 69.45 4.5 59.93"/><path class="cls-3" d="M20.78,34.19l14,8.08V58.44l-14,8.08-14-8.08V42.27l14-8.08m0-5.77-2.5,1.44-14,8.08-2.5,1.45V61.33l2.5,1.44,14,8.08,2.5,1.45,2.5-1.45,14-8.08,2.5-1.44V39.39l-2.5-1.45-14-8.08-2.5-1.44Z" transform="translate(0.22 0.04)"/><polygon class="cls-1" points="35.5 59.93 35.5 40.87 52 31.35 68.5 40.87 68.5 59.93 52 69.45 35.5 59.93"/><path class="cls-3" d="M51.78,34.19l14,8.08V58.44l-14,8.08-14-8.08V42.27l14-8.08m0-5.77-2.5,1.44-14,8.08-2.5,1.45V61.33l2.5,1.44,14,8.08,2.5,1.45,2.5-1.45,14-8.08,2.5-1.44V39.39l-2.5-1.45-14-8.08-2.5-1.44Z" transform="translate(0.22 0.04)"/><polygon class="cls-1" points="66.4 59.93 66.4 40.87 82.9 31.35 99.4 40.87 99.4 59.93 82.9 69.45 66.4 59.93"/><path class="cls-3" d="M82.68,34.19l14,8.08V58.44l-14,8.08-14-8.08V42.27l14-8.08m0-5.77-2.5,1.44-14,8.08-2.5,1.45V61.33l2.5,1.44,14,8.08,2.5,1.45,2.5-1.45,14-8.08,2.5-1.44V39.39l-2.5-1.45-14-8.08-2.5-1.44Z" transform="translate(0.22 0.04)"/><polygon class="cls-1" points="20.05 86.08 20.05 67.03 36.55 57.5 53.05 67.03 53.05 86.08 36.55 95.61 20.05 86.08"/><path class="cls-3" d="M36.33,60.34l14,8.09V84.59l-14,8.08-14-8.08V68.43l14-8.09m0-5.77L33.83,56l-14,8.09-2.5,1.44V87.48l2.5,1.44,14,8.08,2.5,1.45L38.83,97l14-8.08,2.5-1.44V65.54l-2.5-1.44L38.83,56l-2.5-1.44Z" transform="translate(0.22 0.04)"/><polygon class="cls-1" points="50.95 86.08 50.95 67.03 67.45 57.5 83.95 67.03 83.95 86.08 67.45 95.61 50.95 86.08"/><path class="cls-3" d="M67.23,60.34l14,8.09V84.59l-14,8.08-14-8.08V68.43l14-8.09m0-5.77L64.73,56l-14,8.09-2.5,1.44V87.48l2.5,1.44,14,8.08,2.5,1.45L69.73,97l14-8.08,2.5-1.44V65.54l-2.5-1.44L69.73,56l-2.5-1.44Z" transform="translate(0.22 0.04)"/><polygon class="cls-1" points="21.05 33.2 21.05 15.3 36.55 6.35 52.05 15.3 52.05 33.2 36.55 42.15 21.05 33.2"/><path class="cls-4" d="M36.33,8l14,8.08V32.29l-14,8.08-14-8.08V16.12L36.33,8m0-3.46-1.5.86-14,8.08-1.5.87V34l1.5.87,14,8.08,1.5.87,1.5-.87,14-8.08,1.5-.87V14.39l-1.5-.87-14-8.08-1.5-.86Z" transform="translate(0.22 0.04)"/><polygon class="cls-1" points="51.95 33.2 51.95 15.3 67.45 6.35 82.95 15.3 82.95 33.2 67.45 42.15 51.95 33.2"/><path class="cls-4" d="M67.23,8l14,8.08V32.29l-14,8.08-14-8.08V16.12L67.23,8m0-3.46-1.5.86-14,8.08-1.5.87V34l1.5.87,14,8.08,1.5.87,1.5-.87,14-8.08,1.5-.87V14.39l-1.5-.87-14-8.08-1.5-.86Z" transform="translate(0.22 0.04)"/><polygon class="cls-1" points="5.5 59.35 5.5 41.45 21 32.5 36.5 41.45 36.5 59.35 21 68.3 5.5 59.35"/><path class="cls-4" d="M20.78,34.19l14,8.08V58.44l-14,8.08-14-8.08V42.27l14-8.08m0-3.46-1.5.86-14,8.09-1.5.86V60.17l1.5.87,14,8.08,1.5.87,1.5-.87,14-8.08,1.5-.87V40.54l-1.5-.86-14-8.09-1.5-.86Z" transform="translate(0.22 0.04)"/><polygon class="cls-1" points="36.5 59.35 36.5 41.45 52 32.5 67.5 41.45 67.5 59.35 52 68.3 36.5 59.35"/><path class="cls-4" d="M51.78,34.19l14,8.08V58.44l-14,8.08-14-8.08V42.27l14-8.08m0-3.46-1.5.86-14,8.09-1.5.86V60.17l1.5.87,14,8.08,1.5.87,1.5-.87,14-8.08,1.5-.87V40.54l-1.5-.86-14-8.09-1.5-.86Z" transform="translate(0.22 0.04)"/><polygon class="cls-1" points="67.4 59.35 67.4 41.45 82.9 32.5 98.4 41.45 98.4 59.35 82.9 68.3 67.4 59.35"/><path class="cls-4" d="M82.68,34.19l14,8.08V58.44l-14,8.08-14-8.08V42.27l14-8.08m0-3.46-1.5.86-14,8.09-1.5.86V60.17l1.5.87,14,8.08,1.5.87,1.5-.87,14-8.08,1.5-.87V40.54l-1.5-.86-14-8.09-1.5-.86Z" transform="translate(0.22 0.04)"/><polygon class="cls-1" points="21.05 85.5 21.05 67.6 36.55 58.65 52.05 67.6 52.05 85.5 36.55 94.45 21.05 85.5"/><path class="cls-4" d="M36.33,60.34l14,8.09V84.59l-14,8.08-14-8.08V68.43l14-8.09m0-3.46-1.5.86-14,8.09-1.5.86V86.32l1.5.87,14,8.08,1.5.87,1.5-.87,14-8.08,1.5-.87V66.69l-1.5-.86-14-8.09-1.5-.86Z" transform="translate(0.22 0.04)"/><polygon class="cls-1" points="51.95 85.5 51.95 67.6 67.45 58.65 82.95 67.6 82.95 85.5 67.45 94.45 51.95 85.5"/><path class="cls-4" d="M67.23,60.34l14,8.09V84.59l-14,8.08-14-8.08V68.43l14-8.09m0-3.46-1.5.86-14,8.09-1.5.86V86.32l1.5.87,14,8.08,1.5.87,1.5-.87,14-8.08,1.5-.87V66.69l-1.5-.86-14-8.09-1.5-.86Z" transform="translate(0.22 0.04)"/><polygon class="cls-1" points="22.55 16.17 22.55 32.33 36.55 40.41 50.55 32.33 50.55 16.17 36.55 8.08 22.55 16.17"/><polygon class="cls-5" points="26.55 13.86 26.55 29.81 40.73 38 50.55 32.33 50.55 16.17 36.55 8.08 26.55 13.86"/><polyline class="cls-6" points="47.45 23.16 47.45 19 40.45 14.92"/><line class="cls-6" x1="47.45" y1="28.17" x2="47.45" y2="25"/><polygon class="cls-1" points="53.45 16.17 53.45 32.33 67.45 40.41 81.45 32.33 81.45 16.17 67.45 8.08 53.45 16.17"/><polygon class="cls-5" points="57.45 13.86 57.45 29.81 71.63 38 81.45 32.33 81.45 16.17 67.45 8.08 57.45 13.86"/><polyline class="cls-6" points="78.35 23.16 78.35 19 71.35 14.92"/><line class="cls-6" x1="78.35" y1="28.17" x2="78.35" y2="25"/><polygon class="cls-1" points="7 42.32 7 58.48 21 66.57 35 58.48 35 42.32 21 34.23 7 42.32"/><polygon class="cls-5" points="11 40.01 11 55.96 25.18 64.15 35 58.48 35 42.32 21 34.23 11 40.01"/><polyline class="cls-6" points="31.9 49.32 31.9 45.15 24.9 41.07"/><line class="cls-6" x1="31.9" y1="54.32" x2="31.9" y2="51.15"/><polygon class="cls-1" points="38 42.32 38 58.48 52 66.57 66 58.48 66 42.32 52 34.23 38 42.32"/><polygon class="cls-5" points="42 40.01 42 55.96 56.18 64.15 66 58.48 66 42.32 52 34.23 42 40.01"/><polyline class="cls-6" points="62.9 49.32 62.9 45.15 55.9 41.07"/><line class="cls-6" x1="62.9" y1="54.32" x2="62.9" y2="51.15"/><polygon class="cls-1" points="68.9 42.32 68.9 58.48 82.9 66.57 96.9 58.48 96.9 42.32 82.9 34.23 68.9 42.32"/><polygon class="cls-5" points="72.9 40.01 72.9 55.96 87.08 64.15 96.9 58.48 96.9 42.32 82.9 34.23 72.9 40.01"/><polyline class="cls-6" points="93.8 49.32 93.8 45.15 86.8 41.07"/><line class="cls-6" x1="93.8" y1="54.32" x2="93.8" y2="51.15"/><polygon class="cls-1" points="22.55 68.47 22.55 84.64 36.55 92.72 50.55 84.64 50.55 68.47 36.55 60.39 22.55 68.47"/><polygon class="cls-5" points="26.55 66.16 26.55 82.11 40.73 90.3 50.55 84.64 50.55 68.47 36.55 60.39 26.55 66.16"/><polyline class="cls-6" points="47.45 75.47 47.45 71.3 40.45 67.22"/><line class="cls-6" x1="47.45" y1="80.47" x2="47.45" y2="77.3"/><polygon class="cls-1" points="53.45 68.47 53.45 84.64 67.45 92.72 81.45 84.64 81.45 68.47 67.45 60.39 53.45 68.47"/><polygon class="cls-5" points="57.45 66.16 57.45 82.11 71.63 90.3 81.45 84.64 81.45 68.47 67.45 60.39 57.45 66.16"/><polyline class="cls-6" points="78.35 75.47 78.35 71.3 71.35 67.22"/><line class="cls-6" x1="78.35" y1="80.47" x2="78.35" y2="77.3"/><path class="cls-7" d="M151,61.51l-.72-.19c-.25-.06-.49-.14-.72-.22a2.19,2.19,0,0,1-.6-.33.89.89,0,0,1-.31-.51,13.9,13.9,0,0,1-.31-2.47c0-1-.07-2-.07-3.07s0-2.14.05-3.21.06-2.06.09-2.95c0-1.09.06-2.08.08-3s0-1.73.07-2.52.06-1.54.09-2.28.08-1.5.15-2.3a1.27,1.27,0,0,1,.26-.69,3.87,3.87,0,0,1,.43-.46l.41-.36a.71.71,0,0,0,.24-.46,4.16,4.16,0,0,0-.05-1.44,2.36,2.36,0,0,0-.53-1,2.41,2.41,0,0,0-1.36-.53,9.05,9.05,0,0,0-2.13-.14,11,11,0,0,0-1.65.19,12.94,12.94,0,0,0-1.36.33,7.46,7.46,0,0,0-1.42.72,2,2,0,0,0-.74,1.11,9.34,9.34,0,0,0-.16,1.15c-.05.48-.1,1-.15,1.61s-.09,1.2-.12,1.84-.06,1.25-.09,1.83c-.07.92-.12,1.73-.15,2.42s-.06,1.33-.09,1.94c-1,.07-2,.11-3.11.15s-2.15.07-3.19.12l-2.94.14-2.34.12-.41,0a2.37,2.37,0,0,1-.41,0c.1-1.83.18-3.59.24-5.3s.11-3.19.15-4.44a9.3,9.3,0,0,0-.12-1.47,3.34,3.34,0,0,0-.53-1.34,2.62,2.62,0,0,0-1.17-.93,4.55,4.55,0,0,0-2-.29,14.35,14.35,0,0,0-1.58.19c-.57.1-1.14.21-1.7.34s-1.08.25-1.58.38-.9.24-1.22.34a3.32,3.32,0,0,0-1.12.52,1.28,1.28,0,0,0-.46,1.11,6.14,6.14,0,0,0,.17,1.48,1.35,1.35,0,0,0,.6.92,4,4,0,0,0,1.39.31,4.87,4.87,0,0,1,1.1.12c0,1.53-.08,3.25-.22,5.15s-.31,3.88-.5,5.93c-.1,1.31-.2,2.66-.31,4s-.21,2.7-.29,3.91-.13,2.31-.14,3.27a15.87,15.87,0,0,0,.07,2.16c.06.28.15.6.26,1a2.53,2.53,0,0,0,.53.93,2.58,2.58,0,0,0,1,.67,4.21,4.21,0,0,0,1.75.22A10.78,10.78,0,0,0,125,65.9a5,5,0,0,0,1.32-.69,3.3,3.3,0,0,0,.77-2.28c.09-1.2.17-2.67.24-4.39,0-.74,0-1.66.07-2.76s.1-2.33.16-3.67L131,52q1.81,0,3.54-.12l3.18-.12,2.37-.09v0q0,4.23,0,7.2a30.14,30.14,0,0,0,.26,4.41,6.75,6.75,0,0,0,.19,1,2.65,2.65,0,0,0,.55,1,2.82,2.82,0,0,0,1.08.77,4.29,4.29,0,0,0,1.82.24,13.42,13.42,0,0,0,2.17-.26c.69-.15,1.3-.3,1.85-.46a11.19,11.19,0,0,0,1.38-.5c.39-.18.66-.32.82-.41a3,3,0,0,0,.86-.84,2.39,2.39,0,0,0,.33-1.32,2.36,2.36,0,0,0-.07-.58A.75.75,0,0,0,151,61.51Zm13.73-.31c-.51-.14-.8-.41-.86-.79,0-.13-.06-.43-.1-.89s0-1,0-1.61V56c0-.69,0-1.32,0-1.9.07-1.18.15-2.51.24-4s.16-2.88.19-4.22a6.1,6.1,0,0,0-.14-1.34,3.51,3.51,0,0,0-.5-1.23,2.64,2.64,0,0,0-1-.88,3.48,3.48,0,0,0-1.65-.34,8.91,8.91,0,0,0-1.31.12c-.53.08-1.08.18-1.65.31a14.25,14.25,0,0,0-1.63.46,5.25,5.25,0,0,0-1.2.55,2.59,2.59,0,0,0-.76.86,2.4,2.4,0,0,0-.34,1.25,1.43,1.43,0,0,0,.29,1,10.41,10.41,0,0,1,1.34.5,1.11,1.11,0,0,1,.72.94,10.95,10.95,0,0,1,0,1.87l-.19,2.78c-.07,1-.13,2.07-.2,3.12s-.12,2.07-.19,3-.1,1.83-.12,2.6,0,1.39,0,1.87a6,6,0,0,0,.19,1,2.52,2.52,0,0,0,.52,1,3.2,3.2,0,0,0,1,.77,3.56,3.56,0,0,0,1.7.26A14.26,14.26,0,0,0,161.3,66c.67-.13,1.27-.27,1.81-.43a8.54,8.54,0,0,0,1.34-.5l.77-.41a4.44,4.44,0,0,0,.86-.82,2,2,0,0,0,.38-1.29,1.54,1.54,0,0,0-.28-1ZM157.3,38.36a7.86,7.86,0,0,0,1.82.53,10.87,10.87,0,0,0,1.79.17,2.88,2.88,0,0,0,1.58-.55A7.37,7.37,0,0,0,164,37.14a8.85,8.85,0,0,0,1.1-1.73,4,4,0,0,0,.43-1.63,1.62,1.62,0,0,0-.6-1.22,5.35,5.35,0,0,0-1.49-.94,9.62,9.62,0,0,0-1.86-.6,8.61,8.61,0,0,0-1.75-.22,2.63,2.63,0,0,0-1.51.58,7.11,7.11,0,0,0-1.43,1.42,9.53,9.53,0,0,0-1.08,1.77,4.17,4.17,0,0,0-.43,1.66,1.68,1.68,0,0,0,.55,1.24A4.49,4.49,0,0,0,157.3,38.36Zm35.5,3.53a5.17,5.17,0,0,0-2.36-.29,10.58,10.58,0,0,0-1.51.22,5.21,5.21,0,0,0-1.46.5,1.66,1.66,0,0,0-.93.91,5.06,5.06,0,0,0-.36,1.44c-.2,1.95-.43,3.78-.72,5.49a37,37,0,0,1-1.05,4.59,15,15,0,0,1-2.2,5,.65.65,0,0,1-.53.24.7.7,0,0,1-.46-.2,1.23,1.23,0,0,1-.31-.67c-.12-.67-.24-1.28-.33-1.84s-.19-1.11-.26-1.64-.17-1-.27-1.56-.21-1-.33-1.63c-.07-.41-.16-.95-.29-1.6s-.28-1.35-.45-2.07-.36-1.43-.53-2.13-.34-1.33-.5-1.87a10.7,10.7,0,0,0-.58-1.39,4,4,0,0,0-.84-1.16,2.52,2.52,0,0,0-1.26-.64,3.65,3.65,0,0,0-1.82.12A14.69,14.69,0,0,0,170,43.06a6.48,6.48,0,0,0-1.91,1.42,4.45,4.45,0,0,0-.57,1.13,2.75,2.75,0,0,0-.1,1.27,1.06,1.06,0,0,0,.57.86c.23,0,.47.06.72.07a4.4,4.4,0,0,1,.74.12,2,2,0,0,1,.63.29,1,1,0,0,1,.35.48l.34,1.25q.81,2.77,1.39,5.16c.38,1.58.73,3.16,1.05,4.72a16,16,0,0,1,.38,1.71,8.11,8.11,0,0,0,.34,1.36,3.43,3.43,0,0,0,1.22,1.68,8.66,8.66,0,0,0,1.91,1.11,10.61,10.61,0,0,0,2.11.62,10.2,10.2,0,0,0,1.79.19,4.87,4.87,0,0,0,2.61-.79,11.89,11.89,0,0,0,2.34-1.94,16.88,16.88,0,0,0,1.94-2.5,27.68,27.68,0,0,0,1.44-2.49c.38-.77.78-1.66,1.19-2.67s.82-2.06,1.2-3.16.72-2.24,1-3.41a34.51,34.51,0,0,0,.67-3.43,6.3,6.3,0,0,0,.24-1.32,13.32,13.32,0,0,0,.1-1.56A1.35,1.35,0,0,0,192.8,41.89ZM209.19,56c.93-.19,1.78-.37,2.56-.55a22.36,22.36,0,0,0,2.61-.79,12.52,12.52,0,0,0,1.75-.82,3,3,0,0,0,1.12-1.1,6.2,6.2,0,0,0,.67-1.37,5.43,5.43,0,0,0,.24-1.75,8.81,8.81,0,0,0-.67-3.5,8.1,8.1,0,0,0-1.89-2.74,8.44,8.44,0,0,0-2.94-1.77,11.11,11.11,0,0,0-3.83-.63,12,12,0,0,0-2.51.27,15.41,15.41,0,0,0-2.49.72,13.1,13.1,0,0,0-2.32,1.13,11.06,11.06,0,0,0-2,1.48,11.74,11.74,0,0,0-2.87,4.58,18,18,0,0,0-1.06,6.31,12.34,12.34,0,0,0,.91,4.92A9.33,9.33,0,0,0,199,63.86a10,10,0,0,0,3.76,2,16.15,16.15,0,0,0,4.71.65,16.94,16.94,0,0,0,2.63-.21,21.09,21.09,0,0,0,2.58-.6,13.87,13.87,0,0,0,2.33-1,9,9,0,0,0,1.84-1.3,2.1,2.1,0,0,0,.62-1.53,3.31,3.31,0,0,0-.55-1.92c-.37-.55-.68-.82-.93-.82a1.6,1.6,0,0,0-.79.31c-.34.21-.76.45-1.27.72a10.5,10.5,0,0,1-1.77.72,7.87,7.87,0,0,1-2.35.31A6.5,6.5,0,0,1,205.67,60a4.87,4.87,0,0,1-1.84-3.24c.9-.06,1.8-.16,2.71-.29S208.33,56.2,209.19,56Zm-5.5-3.26a9.91,9.91,0,0,1,.36-2.71,9.48,9.48,0,0,1,.95-2.26,4.88,4.88,0,0,1,1.42-1.53,2.73,2.73,0,0,1,1.72-.51,2.24,2.24,0,0,1,1.41.56,3.18,3.18,0,0,1,.84,1.2A4.17,4.17,0,0,1,210.7,49a3.55,3.55,0,0,1-.17,1.28,2.36,2.36,0,0,1-1,1.1,7.34,7.34,0,0,1-1.74.72c-.55.16-1.22.32-2,.48A10.85,10.85,0,0,1,203.69,52.78Z" transform="translate(0.22 0.04)"/><path class="cls-8" d="M239.14,47.33c-1.12-.54-2.28-1.06-3.49-1.56s-2.51-1-3.88-1.6a9.09,9.09,0,0,1-2.23-1.35,2.61,2.61,0,0,1-.93-2.21,2.53,2.53,0,0,1,1-2.18,5.47,5.47,0,0,1,3-.65,8.49,8.49,0,0,1,2.06.24c.64.16,1.32.37,2.06.63a8.53,8.53,0,0,1,1,.41l1.13.5,1,.45c.32.15.58.25.77.32a3.4,3.4,0,0,0,1.48-1.39,5.58,5.58,0,0,0,.82-2.4,2.19,2.19,0,0,0-.12-1.2,2.86,2.86,0,0,0-.74-.87,6.06,6.06,0,0,0-1.73-.93,15.56,15.56,0,0,0-2.2-.6,21.71,21.71,0,0,0-2.44-.34c-.83-.06-1.64-.09-2.44-.09a14.33,14.33,0,0,0-4.64.76,14.77,14.77,0,0,0-4,2.11,11.64,11.64,0,0,0-2.9,3.1,7.31,7.31,0,0,0-1.15,3.77,9.69,9.69,0,0,0,1.44,6,9.94,9.94,0,0,0,4.5,3.33c1.11.45,2.2.86,3.25,1.23s2,.69,2.73,1a7.82,7.82,0,0,1,2.2,1.27,2.86,2.86,0,0,1,1,2.33,4.89,4.89,0,0,1-.17,1.25,2.57,2.57,0,0,1-.62,1.1,3.23,3.23,0,0,1-1.22.77,5.73,5.73,0,0,1-2,.29,9.34,9.34,0,0,1-3.49-.63c-1.05-.41-1.9-.77-2.53-1s-1.34-.65-2.11-1.08-1.34-.73-1.72-.89a3.17,3.17,0,0,0-.77.72,7.37,7.37,0,0,0-.67,1,6.34,6.34,0,0,0-.81,2.44,3,3,0,0,0,.12,1.42,2.21,2.21,0,0,0,1,1.08,11.68,11.68,0,0,0,1.84.91,16.6,16.6,0,0,0,2.32.74,25.13,25.13,0,0,0,2.61.51,20.66,20.66,0,0,0,2.7.19,17.54,17.54,0,0,0,5.08-.74,13.79,13.79,0,0,0,4.3-2.16,10.87,10.87,0,0,0,3-3.48,9.67,9.67,0,0,0,1.13-4.7,9.28,9.28,0,0,0-1.1-4.75A7.69,7.69,0,0,0,239.14,47.33Zm45.43-5.8a5.06,5.06,0,0,0-2.37-.29,11.92,11.92,0,0,0-1.5.21,5.22,5.22,0,0,0-1.46.51,1.68,1.68,0,0,0-.94.91,5.83,5.83,0,0,0-.36,1.44q-.29,2.92-.76,5.49c-.32,1.71-.66,3.24-1,4.58A23.31,23.31,0,0,1,275,57.82a9.34,9.34,0,0,1-.82,1.55.63.63,0,0,1-.52.24.88.88,0,0,1-.55-.19,1,1,0,0,1-.36-.67c-.13-.73-.28-1.65-.46-2.73s-.34-2.24-.5-3.46c-.06-.35-.15-.89-.26-1.61s-.25-1.48-.41-2.3-.33-1.62-.5-2.42a15.77,15.77,0,0,0-.55-2c-.16-.45-.34-.88-.53-1.29a3,3,0,0,0-.79-1.06,2.77,2.77,0,0,0-1.24-.6,4.23,4.23,0,0,0-1.89.12,8.63,8.63,0,0,0-2.23.91,10.53,10.53,0,0,0-1.27.91,8.18,8.18,0,0,0-.64.89,2.32,2.32,0,0,0-.36,1A6.85,6.85,0,0,0,262,46.4a4.39,4.39,0,0,1,.84,1.32,3.59,3.59,0,0,1,.31.67c.05.16.11.35.17.57a15.72,15.72,0,0,1,.38,2.09,2.84,2.84,0,0,1-.14,1.18,14.38,14.38,0,0,1-.84,2.25c-.36.8-.72,1.54-1.07,2.23s-.68,1.28-1,1.78-.48.79-.55.88a.72.72,0,0,1-.52.24c-.38,0-.64-.28-.77-.86s-.3-1.29-.43-1.85-.25-1.1-.38-1.63-.24-1.05-.34-1.56-.2-1.05-.33-1.63c-.1-.41-.22-.95-.38-1.61l-.51-2.06c-.17-.72-.35-1.43-.55-2.13s-.38-1.33-.57-1.88a11.93,11.93,0,0,0-.57-1.39,4.49,4.49,0,0,0-.84-1.15,2.7,2.7,0,0,0-1.27-.65,3.89,3.89,0,0,0-1.82.12,14.87,14.87,0,0,0-3.44,1.37,6.56,6.56,0,0,0-1.92,1.42,5.39,5.39,0,0,0-.57,1.12,2.8,2.8,0,0,0-.1,1.28,1.1,1.1,0,0,0,.58.86l1.43.22a1.17,1.17,0,0,1,1,.74l.43,1.25a53,53,0,0,1,1.62,5.13c.42,1.6.8,3.18,1.15,4.75.13.58.27,1.14.41,1.7a13.32,13.32,0,0,0,.41,1.37A3.65,3.65,0,0,0,253,64.22a7.07,7.07,0,0,0,1.75,1.1,8.79,8.79,0,0,0,1.94.63,9.67,9.67,0,0,0,1.69.19,3.11,3.11,0,0,0,1.51-.38,6.44,6.44,0,0,0,1.32-1,8.35,8.35,0,0,0,1.12-1.42c.34-.53.66-1.06,1-1.6.19-.36.37-.68.53-1s.31-.61.45-.93.3-.69.46-1.11l.57-1.48.24,0L266,60c.1.57.18,1,.26,1.34a5.87,5.87,0,0,0,.36,1A4,4,0,0,0,267.78,64a7.82,7.82,0,0,0,1.72,1.2,8.69,8.69,0,0,0,1.91.72,7.34,7.34,0,0,0,1.7.24,4.36,4.36,0,0,0,2.44-.79,11.6,11.6,0,0,0,2.23-1.95,19.85,19.85,0,0,0,1.89-2.49,20.9,20.9,0,0,0,1.38-2.5,25.76,25.76,0,0,0,1.15-2.66c.39-1,.76-2.07,1.13-3.19s.7-2.26,1-3.43.57-2.29.79-3.38c.06-.29.14-.73.22-1.32a11.78,11.78,0,0,0,.12-1.56A1.35,1.35,0,0,0,284.57,41.53Zm29,19.4a1,1,0,0,1-.72-.79,31.89,31.89,0,0,1-.57-4.75,48.1,48.1,0,0,1,0-5.37c.13-1.76.21-3.32.26-4.68a10.09,10.09,0,0,0-.17-2.85,2.35,2.35,0,0,0-1.05-1.42,5.19,5.19,0,0,0-2.68-.36,8,8,0,0,0-1.82.34,10.05,10.05,0,0,0-1.67.62L303,41a11.4,11.4,0,0,0-3.11-.36,11.77,11.77,0,0,0-4.95,1.08,14.9,14.9,0,0,0-4.05,2.66,10,10,0,0,0-2.61,4.4,21.11,21.11,0,0,0-.83,6.16,17,17,0,0,0,.52,4.32,10.67,10.67,0,0,0,1.56,3.48A7.78,7.78,0,0,0,292,65.08a6.93,6.93,0,0,0,3.52.87,8.35,8.35,0,0,0,3.4-.6,7,7,0,0,0,2.32-1.66A11.46,11.46,0,0,0,303,61.17c.51-1,1.06-2,1.67-3.19l.29.1c0,.74,0,1.53,0,2.37a14.18,14.18,0,0,0,.27,2.52,4.92,4.92,0,0,0,.21,1,3.17,3.17,0,0,0,.53,1,2.59,2.59,0,0,0,1,.74,3.67,3.67,0,0,0,1.67.24,12.34,12.34,0,0,0,3.66-.67,14.37,14.37,0,0,0,1.8-.82,2.31,2.31,0,0,0,1.05-2.11,1.59,1.59,0,0,0-.29-1C314.44,61.21,314,61.08,313.59,60.93Zm-8.95-12.49c0,.41-.06.75-.09,1a13.8,13.8,0,0,1-.82,3.43,23.4,23.4,0,0,1-1.53,3.43,12.72,12.72,0,0,1-1.84,2.64A2.64,2.64,0,0,1,298.57,60a2,2,0,0,1-1.51-.77,5.71,5.71,0,0,1-1-1.8,10.58,10.58,0,0,1-.53-2.4,16.69,16.69,0,0,1-.09-2.52,10.54,10.54,0,0,1,1.24-5.2,4.07,4.07,0,0,1,3.78-1.9,6.08,6.08,0,0,1,2.54.53,10.86,10.86,0,0,1,1.67.91C304.69,47.49,304.67,48,304.64,48.44Zm38.64-1a11.35,11.35,0,0,0-1.89-3.67,8.2,8.2,0,0,0-2.8-2.31,7.73,7.73,0,0,0-3.42-.79,7.07,7.07,0,0,0-2.66.51,6.13,6.13,0,0,0-2.27,1.6c-.38.45-.72.87-1,1.25a10.52,10.52,0,0,0-.81,1.2q-.36.63-.72,1.32c-.24.46-.5,1-.79,1.51l-.33-.09.19-3a4.86,4.86,0,0,0-.1-1.36,3.32,3.32,0,0,0-.52-1.25,2.61,2.61,0,0,0-1.08-.87,3.37,3.37,0,0,0-1.7-.21,11.25,11.25,0,0,0-1.58.21c-.54.12-1,.24-1.5.39a11.15,11.15,0,0,0-1.25.45,2.47,2.47,0,0,0-.74.44,3.47,3.47,0,0,0-.79.88,2.29,2.29,0,0,0-.31,1.23,1.15,1.15,0,0,0,.33.91,7.18,7.18,0,0,1,1.34.53,1,1,0,0,1,.67.91l0,1.58c0,1-.08,2.09-.12,3.19l-.15,3.31c0,1.11-.09,2.17-.12,3.19S319,60.4,319,61.2c-.07,1.09-.12,2.33-.17,3.74s-.09,2.77-.12,4.1,0,2.51,0,3.55a8.56,8.56,0,0,0,.15,2,2.55,2.55,0,0,0,.86,1.47,3.16,3.16,0,0,0,2,.31c.67,0,1.33-.09,2-.17a6.38,6.38,0,0,0,2-.6,1.76,1.76,0,0,0,.86-.72,3.69,3.69,0,0,0,.43-1.06,6,6,0,0,0,0-1c0-.56,0-1.24,0-2.06V68.11c0-1,0-1.91.05-2.83l1.77.45a6.25,6.25,0,0,0,1.68.22,15,15,0,0,0,5.07-.87,12.74,12.74,0,0,0,4.35-2.59,12.33,12.33,0,0,0,3-4.27A14.3,14.3,0,0,0,344,52.37,16.2,16.2,0,0,0,343.28,47.43Zm-7.58,9.31a7.47,7.47,0,0,1-.67,2.2,3.74,3.74,0,0,1-1.32,1.51,3.79,3.79,0,0,1-2.13.56,6.86,6.86,0,0,1-3.11-.63,18.47,18.47,0,0,1-1.77-1c0-.64,0-1.17.05-1.6a6.73,6.73,0,0,1,.14-1,15.65,15.65,0,0,1,.84-3.57,19.54,19.54,0,0,1,1.51-3.29,9.88,9.88,0,0,1,1.86-2.4,2.93,2.93,0,0,1,1.87-.91,1.85,1.85,0,0,1,1.53.72,5.24,5.24,0,0,1,.89,1.82,12.52,12.52,0,0,1,.4,2.4c.07.87.1,1.7.1,2.5A18.92,18.92,0,0,1,335.7,56.74Z" transform="translate(0.22 0.04)"/></svg>