<svg width="23" height="23" viewBox="0 0 23 23" fill="none" xmlns="http://www.w3.org/2000/svg">
<rect width="23" height="23" rx="11.5" fill="#FFB246"/>
<path fill-rule="evenodd" clip-rule="evenodd" d="M12.5065 17.9764L16.9265 15.1309C16.9725 15.1016 17 15.0533 17 15.0016C17 14.9499 16.9725 14.9015 16.9265 14.8723L12.5065 12.0251C12.4565 11.9928 12.3905 11.9916 12.3391 12.0219C12.2867 12.0534 12.2576 12.1095 12.264 12.167V14.189H8.52472C8.52472 14.189 6.50918 14.2368 6 12.8018C6.10794 13.8504 6.69019 14.8076 7.60242 15.4364C7.98596 15.6862 8.44466 15.8177 8.91345 15.8124H12.2392V17.8353C12.2417 17.8946 12.2766 17.9486 12.3317 17.9789C12.386 18.0079 12.4531 18.007 12.5065 17.9765V17.9764ZM10.4927 5.027L6.07366 7.87171C6.02758 7.90104 6 7.94959 6 8.0014C6 8.05328 6.02758 8.10176 6.07366 8.13117L10.4922 10.9747C10.5423 11.0069 10.6082 11.0085 10.6598 10.9786C10.7126 10.9474 10.7419 10.8912 10.7356 10.8336V8.81233H14.4751C14.4751 8.81233 16.4901 8.76619 17 10.2001C16.8923 9.15182 16.3101 8.19478 15.3976 7.5663C15.0137 7.31636 14.5545 7.18486 14.0852 7.19034H10.7378V5.1675C10.7445 5.10949 10.715 5.05295 10.6619 5.02166C10.6097 4.99119 10.5428 4.993 10.4927 5.02627V5.027Z" fill="white"/>
</svg>
