<svg width="23" height="23" viewBox="0 0 23 23" fill="none" xmlns="http://www.w3.org/2000/svg">
<rect width="23" height="23" rx="11.5" fill="#FFB246"/>
<mask id="mask0_6003_2" style="mask-type:luminance" maskUnits="userSpaceOnUse" x="4" y="5" width="15" height="12">
<path fill-rule="evenodd" clip-rule="evenodd" d="M4 5H19V17H4V5Z" fill="white"/>
</mask>
<g mask="url(#mask0_6003_2)">
<path fill-rule="evenodd" clip-rule="evenodd" d="M10.589 9.06894C10.8378 8.84227 11.137 8.7217 11.4857 8.70723C11.8337 8.69196 12.1475 8.81333 12.4263 9.06894C12.4564 9.09868 12.5458 9.18227 12.6954 9.31972L13.2629 9.83656C13.4824 10.0439 13.7287 10.2754 14.0027 10.531C14.2758 10.7875 14.5571 11.0431 14.8465 11.2987C15.514 11.9096 16.2603 12.5944 17.0871 13.3524V16.1584C17.0871 16.3746 17.005 16.5668 16.8408 16.7339C16.6765 16.9019 16.4546 16.9896 16.1758 17H13.3523V14.7108C13.3523 14.3861 13.1978 14.2237 12.8897 14.2237H10.0362C9.86709 14.2237 9.75002 14.2727 9.68498 14.3716C9.62076 14.4696 9.58824 14.5822 9.58824 14.7108C9.58824 14.7703 9.5858 14.9198 9.58092 15.1609C9.57523 15.4029 9.57279 15.6609 9.57279 15.9366V17H6.83958C6.55098 17 6.32172 16.9357 6.15181 16.8079C5.98271 16.6801 5.89816 16.4976 5.89816 16.2613V13.3226C6.7152 12.5839 7.45663 11.9144 8.12408 11.3139C8.40293 11.0583 8.68178 10.8043 8.96063 10.5535C9.23948 10.302 9.49312 10.0729 9.72238 9.8663C9.95164 9.65973 10.1435 9.4853 10.298 9.34223C10.4524 9.19915 10.5492 9.10832 10.589 9.06894ZM18.6699 11.2103C18.8797 11.4072 18.9894 11.6242 18.9992 11.8605C19.009 12.0968 18.9293 12.2938 18.7602 12.4513C18.5708 12.6185 18.3521 12.6973 18.1025 12.6876C17.8537 12.6772 17.6545 12.6081 17.505 12.4803C17.4554 12.4409 17.3033 12.3034 17.0497 12.0663C16.796 11.8308 16.492 11.5478 16.1384 11.2183C15.7847 10.8879 15.4067 10.5335 15.0034 10.1549C14.6002 9.77547 14.2189 9.41859 13.8604 9.08421C13.5019 8.74903 13.193 8.45805 12.9344 8.21289C12.6751 7.96613 12.5109 7.81341 12.441 7.75392C12.1223 7.46938 11.8085 7.33113 11.5004 7.34158C11.1914 7.35042 10.8874 7.48867 10.589 7.75392C10.489 7.84315 10.3028 8.01355 10.0289 8.26353C9.7549 8.51512 9.43865 8.8077 9.08013 9.14289C8.72161 9.47727 8.34277 9.82692 7.94522 10.191C7.54606 10.556 7.17778 10.8952 6.83958 11.2103C6.50057 11.5261 6.20953 11.7938 5.96564 12.0157C5.72175 12.2367 5.5746 12.3677 5.52501 12.4063C5.37542 12.5253 5.17624 12.5888 4.92747 12.5992C4.67789 12.6081 4.46408 12.5349 4.28523 12.3774C4.08523 12.2005 3.99093 11.9859 4.00069 11.7343C4.01125 11.4835 4.0958 11.2842 4.25515 11.1363C4.31531 11.0776 4.49904 10.9048 4.80797 10.6203C5.1169 10.3341 5.48517 9.99411 5.91361 9.60025C6.34123 9.20719 6.80219 8.78359 7.29485 8.33025C7.78832 7.87771 8.24602 7.45411 8.66958 7.06025C9.09233 6.66639 9.45573 6.3296 9.75978 6.04827C10.0638 5.76855 10.2402 5.60296 10.2898 5.55393C10.6687 5.18981 11.0768 5.00494 11.515 5.00012C11.9532 4.99529 12.3263 5.13998 12.6353 5.43497C12.6954 5.48481 12.8198 5.60055 13.0092 5.78221C13.1978 5.96467 13.4295 6.18652 13.7035 6.44695C13.9775 6.70819 14.2832 7.00157 14.6222 7.3263C14.9604 7.65104 15.3042 7.97899 15.653 8.30854C16.0018 8.6381 16.3424 8.96525 16.6765 9.28998C17.0099 9.61552 17.3155 9.9081 17.5952 10.1693C17.8732 10.4298 18.1082 10.6548 18.2968 10.8413L18.6699 11.2103Z" fill="white"/>
</g>
</svg>
