<?xml version="1.0" encoding="UTF-8"?>
<svg width="23px" height="23px" viewBox="0 0 23 23" version="1.1" xmlns="http://www.w3.org/2000/svg" xmlns:xlink="http://www.w3.org/1999/xlink">
    <title>编组 15</title>
    <defs>
        <polygon id="path-1" points="0 0 12 0 12 12 0 12"></polygon>
    </defs>
    <g id="页面-1" stroke="none" stroke-width="1" fill="none" fill-rule="evenodd">
        <g id="首页" transform="translate(-20.000000, -238.000000)">
            <g id="编组-15" transform="translate(20.000000, 238.000000)">
                <rect id="矩形" fill="#FFB246" x="0" y="0" width="23" height="23" rx="11.5"></rect>
                <g id="编组" transform="translate(6.000000, 6.000000)">
                    <mask id="mask-2" fill="white">
                        <use xlink:href="#path-1"></use>
                    </mask>
                    <g id="Clip-2"></g>
                    <path d="M10.47865,8.95769625 C9.63376375,8.95769625 8.95769625,9.63376375 8.95769625,10.47865 C8.95769625,11.3239325 9.63376375,12 10.47865,12 C11.3235362,12 12,11.3239325 12,10.47865 C11.9433308,9.63376375 11.3235362,8.95769625 10.47865,8.95769625 L10.47865,8.95769625 Z M5.9716654,5.9716654 L8.95769625,5.9716654 L8.95769625,4.45031538 L5.9716654,4.45031538 L5.9716654,5.9716654 Z M5.9716654,2.98603084 L8.95769625,2.98603084 L8.95769625,1.46468082 L5.9716654,1.46468082 L5.9716654,2.98603084 Z M10.0843433,7.49301542 C10.1968891,7.49301542 10.3098312,7.49301542 10.47865,7.54889204 L10.47865,0 L2.98563456,0 L0,3.71797497 L0,11.2113867 L7.77437997,11.2113867 C7.60556124,10.8729566 7.49261913,10.47865 7.49261913,10.0843433 C7.49261913,8.61926621 8.61966249,7.49301542 10.0843433,7.49301542 L10.0843433,7.49301542 Z" id="Fill-1" fill="#FFFFFF" mask="url(#mask-2)"></path>
                </g>
            </g>
        </g>
    </g>
</svg>