<?xml version="1.0" encoding="UTF-8"?>
<svg width="23px" height="23px" viewBox="0 0 23 23" version="1.1" xmlns="http://www.w3.org/2000/svg" xmlns:xlink="http://www.w3.org/1999/xlink">
    <title>编组 16</title>
    <defs>
        <polygon id="path-1" points="0 0 11 0 11 12 0 12"></polygon>
    </defs>
    <g id="页面-1" stroke="none" stroke-width="1" fill="none" fill-rule="evenodd">
        <g id="首页" transform="translate(-20.000000, -282.000000)">
            <g id="编组-16" transform="translate(20.000000, 282.000000)">
                <rect id="矩形" fill="#FFB246" x="0" y="0" width="23" height="23" rx="11.5"></rect>
                <g id="编组" transform="translate(6.000000, 6.000000)">
                    <mask id="mask-2" fill="white">
                        <use xlink:href="#path-1"></use>
                    </mask>
                    <g id="Clip-2"></g>
                    <path d="M1.69271081,7.71352726 L4.23112196,7.71352726 L4.23112196,11.1425727 C4.23112196,11.6164141 3.85183421,12 3.38411148,12 L0.846355407,12 C0.378632682,12 0,11.6164141 0,11.1425727 L0,0.857427276 C0,0.383585887 0.378632682,0 0.846355407,0 L3.38411148,0 C3.85183421,0 4.23112196,0.383585887 4.23112196,0.857427276 L4.23112196,4.28647274 L1.69271081,4.28647274 L1.69271081,7.71352726 Z M5.07747737,6.85742728 L2.53906622,6.85742728 L2.53906622,5.14257272 L5.07747737,5.14257272 L5.07747737,3.42904546 L8.46158885,6 L5.07747737,8.57095454 L5.07747737,6.85742728 Z M10.1536446,12 L9.30663411,12 C8.83891139,12 8.4602787,11.6164141 8.4602787,11.1425727 L8.4602787,0.857427276 C8.4602787,0.383585887 8.83891139,0 9.30663411,0 L10.1536446,0 C10.6213673,0 11,0.383585887 11,0.857427276 L11,11.1425727 C10.9980348,11.6164141 10.6194021,12 10.1536446,12 L10.1536446,12 Z" id="Fill-1" fill="#FFFFFF" mask="url(#mask-2)"></path>
                </g>
            </g>
        </g>
    </g>
</svg>