<svg width="23" height="23" viewBox="0 0 23 23" fill="none" xmlns="http://www.w3.org/2000/svg">
<rect width="23" height="23" rx="11.5" fill="#FFB246"/>
<mask id="mask0_5967_3" style="mask-type:luminance" maskUnits="userSpaceOnUse" x="5" y="6" width="14" height="12">
<path fill-rule="evenodd" clip-rule="evenodd" d="M5 6H19V18H5V6Z" fill="white"/>
</mask>
<g mask="url(#mask0_5967_3)">
<path fill-rule="evenodd" clip-rule="evenodd" d="M12.0364 15.6187C11.4932 15.7183 10.915 15.7781 10.3088 15.7781C8.11082 15.7781 6.2264 15.064 5.41997 14.0441C5.14981 14.3855 5 14.761 5 15.1551C5 16.7269 7.37723 18 10.3088 18C11.3644 18 12.3444 17.8335 13.1704 17.5491C12.637 17.0355 12.238 16.3712 12.0364 15.6187ZM10.3088 14.8421C10.8618 14.8421 11.3938 14.7966 11.895 14.7127C11.8908 14.6401 11.8838 14.5675 11.8838 14.4936C11.8838 13.6828 12.1092 12.9274 12.4928 12.2887C11.825 12.4509 11.0872 12.5434 10.3074 12.5434C8.13879 12.5434 6.274 11.8464 5.44941 10.8478C5.16102 11.1991 5 11.5889 5 11.9972C5 13.5689 7.37723 14.8421 10.3088 14.8421ZM10.3088 11.6899C11.5562 11.6899 12.7 11.458 13.6058 11.0725C13.8732 10.8805 14.1658 10.724 14.4752 10.6046C15.1892 10.1195 15.6176 9.50927 15.6176 8.84495C15.6176 7.27314 13.2404 6 10.3088 6C7.37723 6 5 7.27314 5 8.84495C5 10.4154 7.37723 11.6899 10.3088 11.6899ZM15.843 11.182C14.0986 11.182 12.686 12.6657 12.686 14.495C12.686 16.3243 14.1 17.808 15.843 17.808C17.586 17.808 19 16.3257 19 14.495C19 12.6657 17.586 11.182 15.843 11.182ZM17.824 14.5007C17.824 14.7254 17.649 14.909 17.4348 14.909H16.256V16.2219C16.256 16.4552 16.0754 16.6444 15.8514 16.6444H15.8389C15.6148 16.6444 15.4342 16.4552 15.4342 16.2219V14.909H14.2596C14.044 14.909 13.8704 14.7269 13.8704 14.5007V14.4879C13.8704 14.2632 14.0454 14.0796 14.2596 14.0796H15.4342V12.7738C15.4342 12.5405 15.6148 12.3513 15.8389 12.3513H15.8514C16.0754 12.3513 16.256 12.5405 16.256 12.7738V14.0796H17.4348C17.6504 14.0796 17.824 14.2618 17.824 14.4879V14.5007Z" fill="white"/>
</g>
</svg>
